/* XPM */
static char *_486c51d2fef4aee826670cd7d33627bNIsR8bgTUSYHPF87[] = {
/* columns rows colors chars-per-pixel */
"40 40 106 2 ",
"   c #091E28",
".  c #320A65",
"X  c #350D6A",
"o  c #39126D",
"O  c #3C166E",
"+  c #3E176E",
"@  c #3B1373",
"#  c #3C1472",
"$  c #3C1474",
"%  c #3F1779",
"&  c #41197B",
"*  c #41197C",
"=  c #46207D",
"-  c #4C287E",
";  c #451D82",
":  c #492188",
">  c #4A2389",
",  c #4B238B",
"<  c #512C8B",
"1  c #563387",
"2  c #4E2690",
"3  c #512994",
"4  c #522A96",
"5  c #593595",
"6  c #5A3598",
"7  c #5C3899",
"8  c #5A33A1",
"9  c #5A32A3",
"0  c #5C34A6",
"q  c #5D35A7",
"w  c #5F37AB",
"e  c #633BB1",
"r  c #643CB2",
"t  c #653DB4",
"y  c #663EB5",
"u  c #6A4A99",
"i  c #6D4D9B",
"p  c #7658A6",
"a  c #6840B7",
"s  c #6942B8",
"d  c #6A42B8",
"f  c #6F48BD",
"g  c #7351B6",
"h  c #7452B6",
"j  c #7856BA",
"k  c #744EC2",
"l  c #7D5CC1",
"z  c #8265B1",
"x  c #977BB5",
"c  c #805FC1",
"v  c #815FCC",
"b  c #8565CB",
"n  c #8563D2",
"m  c #8663D2",
"M  c #8766D1",
"N  c #8967D3",
"B  c #8967D4",
"V  c #8B6AD7",
"C  c #8C6BD9",
"Z  c #8D6BD9",
"A  c #9576DE",
"S  c #9A7CE4",
"D  c #A489CA",
"F  c #B39CD8",
"G  c #B6A3D8",
"H  c #9E80E9",
"J  c #A285EB",
"K  c #A386EA",
"L  c #AB8FEE",
"P  c #AB90EA",
"I  c #AB90EB",
"U  c #AC91EE",
"Y  c #B197F0",
"T  c #C6B0DD",
"R  c #C1AFE6",
"E  c #C2ACF7",
"W  c #CCB8F4",
"Q  c #C6B0F8",
"!  c #CAB6F9",
"~  c #D0BDFC",
"^  c #D8C3F7",
"/  c #D7C2F8",
"(  c #D3C1FD",
")  c #D4C1FC",
"_  c #D8C7FD",
"`  c #DBCCFD",
"'  c #E1CFFD",
"]  c #E5D3FB",
"[  c #E3D2FE",
"{  c #E5D4FE",
"}  c #E5D6FE",
"|  c #E5D9FE",
" . c #EEDDFE",
".. c #F0DFFE",
"X. c #EAE3F9",
"o. c #EAE2FE",
"O. c #EBE3FE",
"+. c #ECE4FE",
"@. c #F2E1FE",
"#. c #F0E2FE",
"$. c #F2E6FE",
"%. c #F5EBFE",
"&. c #F3ECFE",
"*. c #FAF8FF",
"=. c #FDFCFF",
"-. c #FEFDFF",
/* pixels */
"                                                                                ",
"                                                                                ",
"                                                                                ",
"                                                                                ",
"                                                                                ",
"                                                                                ",
"                                                                                ",
"                                                                                ",
"                                                                                ",
"                                    . . .                                       ",
"                                    o + +                                       ",
"                                . 5 c D x +                                     ",
"                                < h K ^ T i 1                                   ",
"                            . = b S K ^ ] W p .                                 ",
"                          . 7 j S S K ^ #.+.G z -                               ",
"                          $ g H S K U / $.-.O.R u -                             ",
"                      . * 9 b S H Y ! ( | =.*.X.R z .                           ",
"                      ; 4 t n K Y E ( ( ` O.%.%.} F p 1                         ",
"                    # 8 s s B L ! ( ( ( ( ( [ ..#.[ W i +                       ",
"                . 5 l N C C P Q ~ ( ( ( ( ( _ '  . .] T x & .                   ",
"                . 6 Z Z C C P Q ~ ( ( ( ( ( ( ( / ^ ^ ^ D + .                   ",
"                . : s s s s B L ! ( ( ( ( ( ( ! U K K K c o .                   ",
"                  & , w y y k N U E ( ( ( ( E Y K S S h 5                       ",
"                    X 4 w y y f V I ! ~ ~ ! Y H S S b < .                       ",
"                      $ : e y y f N L Q Q L J S H j :                           ",
"                        & 2 q y y k B I L B B v h 7 .                           ",
"                          . 2 e y y s C C s r 8 $ .                             ",
"                            % : w y s C C s 4 *                                 ",
"                              # 3 q d C M 8 ; .                                 ",
"                                X , d C l #                                     ",
"                                  & , 6 5                                       ",
"                                    . . .                                       ",
"                                                                                ",
"                                                                                ",
"                                                                                ",
"                                                                                ",
"                                                                                ",
"                                                                                ",
"                                                                                ",
"                                                                                "
};
