/* XPM */
static char *result[] = {
/* columns rows colors chars-per-pixel */
"40 40 226 2 ",
"   c #091E28",
".  c #090104",
"X  c #070209",
"o  c #0C020A",
"O  c #0B0A09",
"+  c #060806",
"@  c #13030C",
"#  c #1A030E",
"$  c #130A0D",
"%  c #100104",
"&  c #0F0A11",
"*  c #150311",
"=  c #1B0214",
"-  c #130B12",
";  c #1B0B14",
":  c #1E0419",
">  c #1B0C18",
",  c #151214",
"<  c #1E1417",
"1  c #171319",
"2  c #1D1B1B",
"3  c #1B1418",
"4  c #220215",
"5  c #230C17",
"6  c #23041A",
"7  c #2A021D",
"8  c #240C1B",
"9  c #2C0A1E",
"0  c #33011E",
"q  c #22121C",
"w  c #29151E",
"e  c #23191D",
"r  c #2D0423",
"t  c #2C0A23",
"y  c #2D0C29",
"u  c #250B21",
"i  c #330224",
"p  c #390325",
"a  c #310924",
"s  c #350329",
"d  c #3B032B",
"f  c #360A2A",
"g  c #3C0A2D",
"h  c #251322",
"j  c #2B1424",
"k  c #261A22",
"l  c #2B1E24",
"z  c #2C1C29",
"x  c #35162A",
"c  c #3A132C",
"v  c #341C2C",
"b  c #3B192E",
"n  c #331726",
"m  c #351A31",
"M  c #3C1E34",
"N  c #3F1132",
"B  c #2C2229",
"V  c #272226",
"C  c #34252B",
"Z  c #3B2134",
"A  c #342B32",
"S  c #3B2934",
"D  c #332730",
"F  c #3C353E",
"G  c #430A2F",
"H  c #42022E",
"J  c #450A34",
"K  c #4B1C3D",
"L  c #4A1439",
"P  c #52123B",
"I  c #521C3A",
"U  c #412A35",
"Y  c #43253B",
"T  c #49273A",
"R  c #43323B",
"E  c #483038",
"W  c #541B43",
"Q  c #591B44",
"!  c #5C1E4A",
"~  c #571543",
"^  c #691A4E",
"/  c #4D2C42",
"(  c #472C41",
")  c #522746",
"_  c #592D46",
"`  c #5D244D",
"'  c #572A49",
"]  c #4C3343",
"[  c #4B3A46",
"{  c #4C3948",
"}  c #543A46",
"|  c #5B334D",
" . c #533A4B",
".. c #56374B",
"X. c #5E3A57",
"o. c #68284F",
"O. c #6B2C53",
"+. c #6B2C5B",
"@. c #632751",
"#. c #752B5D",
"$. c #603754",
"%. c #6A3256",
"&. c #6E325C",
"*. c #673B57",
"=. c #70345D",
"-. c #7A2A62",
";. c #7B3B64",
":. c #7C3B69",
">. c #793465",
",. c #58464F",
"<. c #5A4655",
"1. c #634256",
"2. c #67485B",
"3. c #6D535E",
"4. c #6F4360",
"5. c #734460",
"6. c #744964",
"7. c #754C6B",
"8. c #7C4D6A",
"9. c #794568",
"0. c #6F5262",
"q. c #725062",
"w. c #745D6A",
"e. c #7B566A",
"r. c #7B4F72",
"t. c #7E5C75",
"y. c #78606C",
"u. c #756875",
"i. c #853F6F",
"p. c #85406C",
"a. c #854972",
"s. c #8A4574",
"d. c #944C7C",
"f. c #96477A",
"g. c #835273",
"h. c #8B557B",
"j. c #875B7A",
"k. c #94537E",
"l. c #86677A",
"z. c #93647F",
"x. c #964C81",
"c. c #9C5989",
"v. c #965B84",
"b. c #A5598C",
"n. c #A95D92",
"m. c #8F6C84",
"M. c #866680",
"N. c #926A84",
"B. c #93648A",
"V. c #9C6D8C",
"C. c #946688",
"Z. c #8C7284",
"A. c #9D748D",
"S. c #98758A",
"D. c #9D7392",
"F. c #9B7991",
"G. c #AA6493",
"H. c #AB6C96",
"J. c #AC6A98",
"K. c #A46A94",
"L. c #B46E9D",
"P. c #BA6A9F",
"I. c #B5639C",
"U. c #A57593",
"Y. c #A37B95",
"T. c #AC749A",
"R. c #AE799D",
"E. c #B37E9D",
"W. c #B675A2",
"Q. c #BA7EA8",
"!. c #BB79A4",
"~. c #C26EA6",
"^. c #C777AC",
"/. c #C37CAD",
"(. c #C97AAB",
"). c #D178AF",
"_. c #CD7EB3",
"`. c #CA7AB4",
"'. c #D67FB8",
"]. c #97818D",
"[. c #AD88A4",
"{. c #BB85AA",
"}. c #BC8CA7",
"|. c #B792A3",
" X c #C38AAC",
".X c #C682AE",
"XX c #CB84B5",
"oX c #CA8BB5",
"OX c #C88BB6",
"+X c #D384B7",
"@X c #D485BB",
"#X c #D48BBC",
"$X c #D789BA",
"%X c #CC91BB",
"&X c #D292B9",
"*X c #D887C1",
"=X c #DD8DC3",
"-X c #DF8CC9",
";X c #DC92C4",
":X c #D697C5",
">X c #E38CC4",
",X c #E28FC8",
"<X c #E391C6",
"1X c #E593CC",
"2X c #EC94CD",
"3X c #E99CCD",
"4X c #E49CCB",
"5X c #F09DCE",
"6X c #EC9CD3",
"7X c #EC9AD4",
"8X c #F396D3",
"9X c #FA97D6",
"0X c #F49BD3",
"qX c #F99BD6",
"wX c #F29ED9",
"eX c #FA9DDB",
"rX c #CAA0C0",
"tX c #DAA4C7",
"yX c #D9A4C8",
"uX c #E7A4CC",
"iX c #EDA1D3",
"pX c #E9A8D6",
"aX c #F2A3D6",
"sX c #F3A3DA",
"dX c #F5A7DC",
"fX c #FAA8E1",
/* pixels */
"                    . .       X       l 3.e                                     ",
"                . w y.].k + X       + A R $                                     ",
"                . 1.|.l.e   X                                                   ",
"                . z.S.# .       .                                               ",
"                . U.F.q         . l <       . ; q o .                           ",
"                  { <.k [ B @ ; ,.R $ . . 5 2.U.R.z.*.n @                       ",
"                  @ - ; ,.m Z w.} q . . @ ..V.H..X4X#XR.1.h X                   ",
"              +   + + + : t.F.@ . . @ @ 9 9 4 = = &.XXaXsXQ.Z X                 ",
"                  X X q [.A.C = @ : : r r r y y r 7 W I.dXG.v X       .         ",
"                X m r. Xg.c r r i y i r i i i i i r i J :.K.U./ % . . C E $     ",
"            X X z B.:X{.J a p p i s s L +.=.#.+.` f s s i g *.D.] . % C e.e     ",
"        X   X m B.iX#X:.p s s s d d W x.@X*X=X*X/.L r s p i 6 ..[.w . w 3.l     ",
"          X ( OX7X1Xb.g s s s s ! n.XX-Xf.-.-.'.0Xf.P s r i 9 7 a.z.5 # } e     ",
"        X z D.6X7X1X:.i i s s ` `.1X1X-X`.W.x.P.qX>Xb.I i i i i P  X$.% R k X   ",
"        X Y {.7X-X`.:.r i i J /.sXP.>.:.d.G.L.>XdX9X,Xb.g i i p H E.U.n l e +   ",
"        X 8 T.iX-.`.x.i i p k.6XaX>.r r i 7 i ~ n.0XwX7X>.d i p 0 =.&X8..       ",
"          @ j.uX^ 1XG.g i O.(.1XdX@.r s s s i i i b.*X(./.` d s i I H.N.        ",
"        . . } uX).eX^.Q P P.i.I.iXL i i i i i i 7 %.L.s.;Xc.N 6 7 f ` ...       ",
"          . n uX9X9X$XO.a.XXi.).1XH i r r s K 4 = T V.a.@X/.Y o Z a r =         ",
"            ; #XeX9X$X=.H.=Xx.wX@Xs s s r f g.j @ w 6.v.#X<X$.  <.j = *         ",
"            . k.wX1XH.v 5.oX=XsX=XH i 9 # 9 U.A.= o Y R.2X3X8.  < o . +         ",
"              | pXT./ o 8 *..XwX0XP 7 # % G T.&X) X j v.0X6X6.      ; D ,       ",
"              y yX7.= . . 5 *.iXaXi.K 9 $ $.v.oXR.o v J.0XiX5..   . S Z.B       ",
"              o m.}.K X     . 7.dXsXwX<X/.<X3XpX}.8 e.3Xs.&.n . . h N.tXU .     ",
"              . b uXV.5       . h.aX8X8XsXaX#X%.4 T  X$X) r : . X X.:XyX] .     ",
"    .         . . v.tXV.>     X @ a./.(.G.=.c 4 4 J.3Xn.H s r : M Y.D.m.R X     ",
"  . . . . 5 U $   _ OX:XT X X X @ 9 ` o.G p i t K ,X$Xi.i s r 6 1.M = $ $ X     ",
".       . 2.{.z . _ /.7Xh.h X * 5 i 0 0 0 i p g c.0X^.~ i s r 8 q . .   @ - + X ",
"        o N.E.- X K.6X7X1Xh.b 7 r r i i L #.f.~.2X<Xd.p i f y X       X D u.S   ",
"        . 2.A.. X B.pX7X2X;Xv.i i r 7 K G.+X>X8X0X+X%.7 f X.M X     X   1 F q X ",
"      +   w } o X Z 7.9.s.!.#Xk.Q Q ! f.<X9X0X8X3X{.K 6 | 6.z X         X X X   ",
"            .     + z S # 7 %.aXdXsXfXeX8X8X2XO.f 8 X X q./ @   3 ,             ",
"                + + 2 D   o 6 ! #XL.f.$X9X3Xg.@ @       3.q.w   , O             ",
"                      X   + o 4 L ;X$X<X+X5.5 X   X . $ w.} @                   ",
"      +       +     +   + 1 - = s W.4X;X6.9 % X X o * ] w.l   X                 ",
"              [ Z .     + F z X * ) v.h.9 % o ; > h ..m.] + X                   ",
"            . j.rX{ @   X , O X X X @ @ X X q l.l.Y.Y.1.$   X                   ",
"      + +   . l N.[.2.* X X   X   X X X X & [  .S  .S ;   . .                   ",
"              . w 7.M.R X             X X & z $   o .   .   X                   ",
"                  . .   V V O                                                   "
};
