/* XPM */
static char *_eeff430de9e4ad2bc7ac650c22f7ea6AtC2prhsCvTwSAq6[] = {
/* columns rows colors chars-per-pixel */
"40 40 115 2 ",
"   c #091E28",
".  c #0F0E0F",
"X  c #060B12",
"o  c #141314",
"O  c #1F2227",
"+  c #112135",
"@  c #192433",
"#  c #26292E",
"$  c #2A2B2D",
"%  c #192E46",
"&  c #3B3F42",
"*  c #263B53",
"=  c #4A4F50",
"-  c #656C71",
";  c #707677",
":  c #738A94",
">  c #798A92",
",  c #758D99",
"<  c #7F969F",
"1  c #7A97A3",
"2  c #7D99A3",
"3  c #818587",
"4  c #82898A",
"5  c #808B90",
"6  c #839095",
"7  c #899193",
"8  c #8B9699",
"9  c #8C9A9F",
"0  c #879EA7",
"q  c #8DA3AD",
"w  c #91A1A6",
"e  c #94A4AB",
"r  c #9BA7AC",
"t  c #95A8AF",
"y  c #9EABAF",
"u  c #8AA5B1",
"i  c #8DA9B4",
"p  c #8CACBA",
"a  c #93AAB3",
"s  c #9EAEB4",
"d  c #93AEB9",
"f  c #9BB2BA",
"g  c #A1AEB2",
"h  c #A2B2B6",
"j  c #ABB3B6",
"k  c #A3B4BA",
"l  c #ADB4B9",
"z  c #AEBABD",
"x  c #BDBEBE",
"c  c #92B4C3",
"v  c #98B6C2",
"b  c #96B8C5",
"n  c #9CBBC6",
"m  c #9ABECC",
"M  c #AEBEC2",
"N  c #B2BFC3",
"B  c #9DC0CF",
"V  c #9EC1D1",
"C  c #A8C1CB",
"Z  c #B6C2C5",
"A  c #BDC3C5",
"S  c #B4C6CA",
"D  c #BBC6C9",
"F  c #B6C8CC",
"G  c #BDCACD",
"H  c #A4C5D2",
"J  c #A6C8D5",
"K  c #A9CAD6",
"L  c #ADCED9",
"P  c #B7CAD0",
"I  c #BCCFD4",
"U  c #AFD0DB",
"Y  c #BED0D5",
"T  c #B2D2DD",
"R  c #BFD7DD",
"E  c #BED8DF",
"W  c #B9D6E0",
"Q  c #BEDBE4",
"!  c #C2C6C7",
"~  c #C3C9CA",
"^  c #C9CACA",
"/  c #CFCFD0",
"(  c #CCD2D2",
")  c #C2D6DB",
"_  c #C8D7DA",
"`  c #C4D9DF",
"'  c #CBDBDE",
"]  c #D2D2D2",
"[  c #C2DDE5",
"{  c #CADCE1",
"}  c #D7DEE0",
"|  c #CDE2E6",
" . c #C4E1E8",
".. c #CBE5EA",
"X. c #CDE8EF",
"o. c #D3E6EB",
"O. c #D5EAEE",
"+. c #DAEAED",
"@. c #CEE9F0",
"#. c #D4ECF2",
"$. c #D9EEF3",
"%. c #D7F1F6",
"&. c #DCF2F7",
"*. c #DEF5F9",
"=. c #E6E7E7",
"-. c #E3ECED",
";. c #E9EBEC",
":. c #E3F1F5",
">. c #E2F6FB",
",. c #EDF6F8",
"<. c #E1F8FC",
"1. c #EBFAFE",
"2. c #F3F4F5",
"3. c #F3FCFE",
"4. c #FBFEFE",
/* pixels */
"                                                                                ",
"                                x 2.4.4.3.              a                       ",
"                              x 4.4.4.3.3.1.+.      >.#.a                       ",
"                            ^ 2.4.4.4.3.3.3.1.1.1.>.>.W s                       ",
"                            ] 4.4.4.4.3.1.3.1.1.1.O.n a                         ",
"                          ] ;.4.4.3.3.3.3.1.1.1.:.#.                            ",
"                          ] 3.3.4.3.3.1.1.1.1.1.$.M                             ",
"                          ] 3.4.3.3.3.3.1.1.1.1.<.                              ",
"                          ( 3.3.3.3.3.1.1.1.1.>.>.                              ",
"                        ^ -.} ,.1.3.1.1.1.1.1.Z _ ..                            ",
"                        N 2.3 4 1.3.1.1.1.:.r # 8 $.w                           ",
"                        ~ ~ o * - ,.1.1.1.G @ % $ &.d                           ",
"                          Z . + & 1.1.1.>.{ # . = <.n                           ",
"                          :.; $ z >.+.z } >.M > { <.C j                         ",
"                  1.1.Z   1.>.1.1.O.) #.) { >.<.<.<.K g 1.1.                    ",
"              -.1.1.  9 $.1.1.>.>.<.:.o.<.>.>.<.<.<.H > ) o.>.$.                ",
"              1.1.1.    1.<.1.<.>.>.1.<.<.<.<.*.<.<.K e   s >.>.<.              ",
"              1.1.>.    <.>.<.<.>.>.>.<.<.<.<.<.<.<.Q u   S <.*.<.              ",
"              1.>.<.    <.<.<.<.<.<.<.<.<.<.<.<.*.<.#.m 7 ..<.<.<.              ",
"            >.>.>.#.  &.<.<.*.<.<.<.<.<.<.>.&.&.<.<.<.T :  .*.*.<.*.M           ",
"                [ 0   <.*.*.*.*.&.&.&.&.>.&.&.&.&.| %.#.p : [ R ..` r           ",
"                    O.<.<.*.*.*.&.>.<.&.&.>.<.*.>.$.F *.T ,       ~             ",
"                    <.<.*.<.<.*.<.<.<.<.<.<.<.<.*.<.8 *.#.m t                   ",
"                D *.*.<.<.<.<.<.<.<.<.<.<.<.*.<.<.<.h Y <.Q b s                 ",
"            =.D %.*.<.<.<.<.<.<.<.*.<.<.*.<.<.*.*.<._ e <.*.K p                 ",
"            Z *.*.<.<.*.*.<.*.*.<.<.<.*.<.<.<.<.<.<...6 <.*.X.B q               ",
"          j %.<.<.<.<.<.<.<.*.&.<.<.<.<.<.<.<.<.*.<._ w <.<.*. .m r             ",
"          k [ <.<.*.<.*.<.<.<.P <.*.<.<.*.<.<.*.X.k 5 ` <.*.*.*.H p             ",
"          h J  .*.*.*.*.*.<.<.C O.<.<.*.<.*.<.<.&.%.*.<.*.*.*.*.L p             ",
"          A b H K K U Q X.<.*.{ k *.<.<.<.<.<.<.*.<.*.*.*.%.@. .B p             ",
"            ! k f f f v B T %.*.> *.<.<.*.<.<.*.*.<.<.<. .b d f f l             ",
"                        g B K %.P y <.*.<.<.<.<.<.<.*.%.B a                     ",
"                          s V T *.a S *.*.*.*.*.*.*.*.U c                       ",
"                            d V @.*.S z &.*.*.%.X.X.L V a                       ",
"                              m W *.*.*.*.#.J B 2 < 1 <                         ",
"                              e V @.*.*.%.V p                                   ",
"                                b K *.*.L                                       ",
"                                e V V H V d                                     ",
"                                  i V V V h                                     ",
"                                    u m q                                       "
};
