/* XPM */
static char *result[] = {
/* columns rows colors chars-per-pixel */
"40 40 219 2 ",
"   c #0A090A",
".  c #14090C",
"X  c #0E0D11",
"o  c #121114",
"O  c #1C1B1D",
"+  c #171519",
"@  c #231613",
"#  c #331318",
"$  c #38341B",
"%  c #1F1D21",
"&  c #211E24",
"*  c #301C21",
"=  c #282623",
"-  c #372327",
";  c #383626",
":  c #50161E",
">  c #641A0D",
",  c #7F2015",
"<  c #7B3315",
"1  c #511C24",
"2  c #402F2A",
"3  c #423D2C",
"4  c #72202A",
"5  c #7A3739",
"6  c #784517",
"7  c #554B29",
"8  c #5F5938",
"9  c #534D2E",
"0  c #665A34",
"q  c #726836",
"w  c #7A723C",
"e  c #696332",
"r  c #645944",
"t  c #7F7741",
"y  c #7B704E",
"u  c #8B211E",
"i  c #832C2B",
"p  c #8C2925",
"a  c #952926",
"s  c #952D2B",
"d  c #9B2E2A",
"f  c #9A2623",
"g  c #82322F",
"h  c #9F322E",
"j  c #97302C",
"k  c #882B34",
"l  c #962D3A",
"z  c #8B363B",
"x  c #9E3632",
"c  c #98383A",
"v  c #A32928",
"b  c #A1322F",
"n  c #AF3129",
"m  c #A23532",
"M  c #AB3A36",
"N  c #A43D3B",
"B  c #AD3C3A",
"V  c #A73637",
"C  c #BB3B3B",
"Z  c #B53836",
"A  c #C53D3D",
"S  c #C13B36",
"D  c #824B19",
"F  c #9A5C1D",
"G  c #955719",
"H  c #8B5223",
"J  c #965B28",
"K  c #92413F",
"L  c #965E32",
"P  c #A35F2E",
"I  c #A9423E",
"U  c #B1413E",
"Y  c #B8533A",
"T  c #9C632B",
"R  c #82793E",
"E  c #81733D",
"W  c #947F3C",
"Q  c #A56A2D",
"!  c #A96828",
"~  c #B7722C",
"^  c #A66A35",
"/  c #AE7232",
"(  c #A8773E",
")  c #BB7934",
"_  c #B67838",
"`  c #B26D34",
"'  c #C27E35",
"]  c #C37E3D",
"[  c #9E3040",
"{  c #A53743",
"}  c #B63B47",
"|  c #BC3D52",
" . c #C63F48",
".. c #8C4240",
"X. c #8D4D4C",
"o. c #854846",
"O. c #934E4D",
"+. c #9B5C5B",
"@. c #965555",
"#. c #A94747",
"$. c #B94542",
"%. c #BC4B4A",
"&. c #B64542",
"*. c #B7524E",
"=. c #B65856",
"-. c #AD4D56",
";. c #857B44",
":. c #9F605F",
">. c #877D5A",
",. c #AA7448",
"<. c #B77A47",
"1. c #BF625E",
"2. c #AC6E46",
"3. c #A25B60",
"4. c #B1716E",
"5. c #B36764",
"6. c #CE4345",
"7. c #C34945",
"8. c #C54945",
"9. c #C84857",
"0. c #D24E57",
"q. c #C85854",
"w. c #CE4F4A",
"e. c #D25E6A",
"r. c #C46763",
"t. c #BE913B",
"y. c #B48338",
"u. c #C58236",
"i. c #C2813B",
"p. c #CA853C",
"a. c #CB8738",
"s. c #D18A3D",
"d. c #878140",
"f. c #948A45",
"g. c #958945",
"h. c #988B54",
"j. c #9A9348",
"k. c #B18F48",
"l. c #A79946",
"z. c #B79648",
"x. c #B6915B",
"c. c #B5A14B",
"v. c #AFA050",
"b. c #BFA85F",
"n. c #A99A6D",
"m. c #B8A365",
"M. c #C28243",
"N. c #CD8945",
"B. c #D58D4B",
"V. c #D08947",
"C. c #CB9D48",
"Z. c #D2934C",
"A. c #D99449",
"S. c #CE9153",
"D. c #DC9651",
"F. c #D89953",
"G. c #CA8D57",
"H. c #E09652",
"J. c #CBA64C",
"K. c #DABB4E",
"L. c #D5B64C",
"P. c #C6AB55",
"I. c #CBB758",
"U. c #D2B251",
"Y. c #D9B654",
"T. c #D4BC55",
"R. c #D8BA59",
"E. c #DEA95B",
"W. c #E3BD43",
"Q. c #E2BF56",
"!. c #CBBA70",
"~. c #F1A467",
"^. c #DDC253",
"/. c #D8CD5D",
"(. c #D3CB5A",
"). c #E1C44B",
"_. c #E9CA4C",
"`. c #E1C453",
"'. c #E5C954",
"]. c #EBCD56",
"[. c #E5C45A",
"{. c #E4CC5A",
"}. c #E9CE5B",
"|. c #E9C55B",
" X c #ECD25D",
".X c #EFD057",
"XX c #F3D355",
"oX c #F3D55B",
"OX c #F5DB5E",
"+X c #F9DC5E",
"@X c #DDC168",
"#X c #E6C865",
"$X c #EDD362",
"%X c #E9D969",
"&X c #F0D762",
"*X c #F5DB62",
"=X c #F9DF63",
"-X c #FADD6D",
";X c #F2CF7B",
":X c #F6D977",
">X c #EFCF6F",
",X c #FDE464",
"<X c #FEEB66",
"1X c #F4EA6A",
"2X c #FEED69",
"3X c #FBE26B",
"4X c #FFF46A",
"5X c #FFF166",
"6X c #FEEC74",
"7X c #FCE37B",
"8X c #FFF27C",
"9X c #EBE26D",
"0X c #E57E90",
"qX c #DCC887",
"wX c #F4D989",
"eX c #FEEC82",
"rX c #FFF187",
"tX c #FFE190",
"yX c None",
/* pixels */
"yXyXyXyXyXyXyXyXyXyXyXyXyXyXyXyXyXyXyXyXyXyXyXyXyXyXyXyXyXyXyXyXyXyXyXyXyXyXyXyX",
"yXyXyXS.Z.Z.S.yXyXyXyXyXyXyXyXyXyXyXyXyXyXyXyXyXyXyXyXyXyXyXyXyXyXyXyXyXyXyXyXyX",
"yXyXZ.A.a.a.u.i.yXyXyXyXyXyXyXyXyXyXyXyXyXyXyXyXyXyXyXyXyXyXyXyXyXyXyXyXyXyXyXyX",
"yXF.D.A.s.a.a.) yXyXyXyXyXyXyXyXyXyXyXyXyXyXyXyXyXyXyXyXyXyXyXyXyXyXyXyXyXyXyXyX",
"yXF.D.~.D.a.u.) <.^ yXyXyXyXyXyXyXyXyXyXyXyXyXyXyXyXyXyXyXyXyXyXyXyXyXyXyXyXyXyX",
"yXN.N.B.D.V.] ! ^ ^ yXyXyXyXyXv.#X0 -XyXyXyXyXyXyXyXyXyXyXyXyXyXyXyXyXyXyXyXyXyX",
"yXQ T Q ) ) ! ! H P yXyXyXm.y t I.P.3XR.;.q d.0 yXyXyXyXyXyXyXyXyXyXyXyXyXyXyXyX",
"yX^ 6 H J F G 2.yXyXyXyXb.; % v.6X2X3Xl.{.<XT.;.yXyXyXyXyXyXyXyXyXyXyXyXyXyXyXyX",
"yX,.H D L J J yXyXyXyXP.= % t 2X2X1Xf.; ; T.T.;.yXyXyXyXyXyXyXyXyXyXyXyXyXyXyXyX",
"yXyX^ L D D yXyXyXyX3X*X9 9 1X4X1Xe O O = {.{.l.-XyXyXyXyXyXyXyXyXyXyXyXyXyXyXyX",
"yXyXyX,.z.P.R.yXyX6Xf.0 ; /.5X5Xd.O % % q <X,X,X*X&XyXyXyXyXyXyXyXyXyXyXyXyXyXyX",
"yXyXyXyXyX^.@X;XyX6Xh.wX%X4X4X(.; t e ; /.<X<X<X,X*XyXyXyXyXyXyXyXyXyXyXyXyXyXyX",
"yXyXyXyXyXyX!.wXrX8XeX8X4X=X5XR O w 1X4X4X2X2X,X,X=X$XyXyXyXyXyXyXyXyXyXyXyXyXyX",
"yXyXyXyXyXyXyX>.rX8X:X#XOX X5Xw O O j.4X4X2X2X,X,X=X*XyXyXyXyXyXyXyXyXyXyXyXyXyX",
"yXyXyXyXyXyXyX= !.8X6X^.[.XX<X9Xd.j.1X4X4X2X2X<X,X*X&X$XyXyXyXyXyXyXyXyXyXyXyXyX",
"yXyXyXyXyXyXy & O f.1X1X{.oX5X4X4X4X4X4X4X2X<X,X,X*X$X$XyXyXyXyXyXyXyXyXyXyXyXyX",
"yXyXyXyXyXyX>.& + X ; l.+X<X4X4X4X4X4X4X5X<X<X,X=X*X X XyXyXyXyXyXyXyXyXyXyXyXyX",
"yXyXyXyXyXyXn.& + o @ @ @ 7 j.(.1X4X4X4X5X5X<X,X=X&X X$X$XyX*X*XyXyXyXyXyXyXyXyX",
"yXyXyXyXyXyXqX= % 1 [ l : .       $ 7 e q f.,X,XOXoX}.{.=X,X=X=X=X&XyXyXyXyXyXyX",
"yXyXyXyXyXyXyXr O [ | } m i 4 : o   X o O c.OXOXoX X{.^.^.T.T.R.{. XC.i.yXyXyXyX",
"yXyXyXyXyXyXyX!.& 5 9.| } } [ k # @ + O w +XOXOX X}.`.U.P.yXyXk.k.t.a._ _ yXyXyX",
"yXyXyXyXyXyXyXtXh.= -.9. .} } [ = O % w +X+XOX X}.'.R.Y.yXyXyXyXF ~ ! ~ u.M.yXyX",
"yXyXyXyXyXyXyXyX:Xz.2 5 [ { k 2 % 3 c.OX+XoX.X}.'.`.`.#XyXyXyXyXD G ] B.p.) G.yX",
"yXyXyXyXyXyXyXyXtX>XQ.;.0 7 7 q t. XOXXXXX.X].'.`.^.|.yXyXyXyXyX! ) p.N.B.M.<.yX",
"yXyXyXyXyXyXyXyXyX:X|.W.W.W._.XXXXXX.X].].'._.'.).[.yXyXyXyXyXyX~ y.u.' N.M._ yX",
"yXyXyXyXyXyXyXyXyXyX;XQ.Q.oXoXXX_.`.'._._._.).).[.yXyXyXyXyXyX) ) _ ) ) ) ) <.yX",
"yXyXyXyXyXyXyXyXyXyXyX;X:X7X:X$X|.K.K.).).K.Q.Q.yXyXyXyXyXyXyXyXQ T ^ / / / <.yX",
"yXyXyXyXyXyXyXyXyXe.A w.E.$XR.U.U.U.L.K.Q.J.k.K k s yXyXyXyXyXyX6 6 J / / / x.yX",
"yXyX0X0.6. . .S 8.} Z Z C Y ` yXyXY.Y.Y.t.> i c u d B yXyXyXyXyXT T T yXyX,.yXyX",
"yXyX0.6.6.6.A S Z n v n B C M #.yXyXU.U.J.< x q.B b $.yXyXyXyXyXyXyXyXyXyXyXyXyX",
"yX3.-.%.0.w.A A S Z f v B B N yXyXyXyXJ.y.u B *.%.d M yXyXyXyXyXyXyXyXyXyXyXyXyX",
"yX3.@.X.#.8.8.7.U Z m f V m *.yXyXyX} b a a j h h h b yXyXyXyXyXyXyXyXyXyXyXyXyX",
"yXyX:.@.X...%.%.U B N m m I yXyXyXyXyX-.[ k p p a m b &.yXyXyXyXyXyXyXyXyXyXyXyX",
"yXyXyX5.:.@.K I B V I *.I =.yXyXyXyXyXyXyXyXp p a b M B yXyXyXyXyXyXyXyXyXyXyXyX",
"yXyXyXyXyX4.+.o.h x I =.=.r.yXyXyXyXyXyXyXyX#.d f b B &.q.yXyXyXyXyXyXyXyXyXyXyX",
"yXyXyXyXyXyXO.X.X.c K 1.1.yXyXyXyXyXyXyXyXyX=.m d d V #.%.yXyXyXyXyXyXyXyXyXyXyX",
"yXyXyXyXyXyXyXyXk 0 K =.1.yXyXyXyXyXyXyXyXyX=.m d d h N U q.yXyXyXyXyXyXyXyXyXyX",
"yXyXyXyXyXyXyXyXyXo.5 K yXyXyXyXyXyXyXyXyXyXyXN s s j j b U yXyXyXyXyXyXyXyXyXyX",
"yXyXyXyXyXyXyXyXyXyXyXyXyXyXyXyXyXyXyXyXyXyXyXyXz i i g z yXyXyXyXyXyXyXyXyXyXyX",
"yXyXyXyXyXyXyXyXyXyXyXyXyXyXyXyXyXyXyXyXyXyXyXyXyXyXyXyXyXyXyXyXyXyXyXyXyXyXyXyX"
};
