/* XPM */
static char *result[] = {
/* columns rows colors chars-per-pixel */
"40 40 219 2 ",
"   c #0A090A",
".  c #14090C",
"X  c #0E0D11",
"o  c #121114",
"O  c #1C1B1D",
"+  c #171519",
"@  c #231613",
"#  c #331318",
"$  c #38341B",
"%  c #1F1D21",
"&  c #211E24",
"*  c #301C21",
"=  c #282623",
"-  c #372327",
";  c #383626",
":  c #50161E",
">  c #641A0D",
",  c #7F2015",
"<  c #7B3315",
"1  c #511C24",
"2  c #402F2A",
"3  c #423D2C",
"4  c #72202A",
"5  c #7A3739",
"6  c #784517",
"7  c #554B29",
"8  c #5F5938",
"9  c #534D2E",
"0  c #665A34",
"q  c #726836",
"w  c #7A723C",
"e  c #696332",
"r  c #645944",
"t  c #7F7741",
"y  c #7B704E",
"u  c #8B211E",
"i  c #832C2B",
"p  c #8C2925",
"a  c #952926",
"s  c #952D2B",
"d  c #9B2E2A",
"f  c #9A2623",
"g  c #82322F",
"h  c #9F322E",
"j  c #97302C",
"k  c #882B34",
"l  c #962D3A",
"z  c #8B363B",
"x  c #9E3632",
"c  c #98383A",
"v  c #A32928",
"b  c #A1322F",
"n  c #AF3129",
"m  c #A23532",
"M  c #AB3A36",
"N  c #A43D3B",
"B  c #AD3C3A",
"V  c #A73637",
"C  c #BB3B3B",
"Z  c #B53836",
"A  c #C53D3D",
"S  c #C13B36",
"D  c #824B19",
"F  c #9A5C1D",
"G  c #955719",
"H  c #8B5223",
"J  c #965B28",
"K  c #92413F",
"L  c #965E32",
"P  c #A35F2E",
"I  c #A9423E",
"U  c #B1413E",
"Y  c #B8533A",
"T  c #9C632B",
"R  c #82793E",
"E  c #81733D",
"W  c #947F3C",
"Q  c #A56A2D",
"!  c #A96828",
"~  c #B7722C",
"^  c #A66A35",
"/  c #AE7232",
"(  c #A8773E",
")  c #BB7934",
"_  c #B67838",
"`  c #B26D34",
"'  c #C27E35",
"]  c #C37E3D",
"[  c #9E3040",
"{  c #A53743",
"}  c #B63B47",
"|  c #BC3D52",
" . c #C63F48",
".. c #8C4240",
"X. c #8D4D4C",
"o. c #854846",
"O. c #934E4D",
"+. c #9B5C5B",
"@. c #965555",
"#. c #A94747",
"$. c #B94542",
"%. c #BC4B4A",
"&. c #B64542",
"*. c #B7524E",
"=. c #B65856",
"-. c #AD4D56",
";. c #857B44",
":. c #9F605F",
">. c #877D5A",
",. c #AA7448",
"<. c #B77A47",
"1. c #BF625E",
"2. c #AC6E46",
"3. c #A25B60",
"4. c #B1716E",
"5. c #B36764",
"6. c #CE4345",
"7. c #C34945",
"8. c #C54945",
"9. c #C84857",
"0. c #D24E57",
"q. c #C85854",
"w. c #CE4F4A",
"e. c #D25E6A",
"r. c #C46763",
"t. c #BE913B",
"y. c #B48338",
"u. c #C58236",
"i. c #C2813B",
"p. c #CA853C",
"a. c #CB8738",
"s. c #D18A3D",
"d. c #878140",
"f. c #948A45",
"g. c #958945",
"h. c #988B54",
"j. c #9A9348",
"k. c #B18F48",
"l. c #A79946",
"z. c #B79648",
"x. c #B6915B",
"c. c #B5A14B",
"v. c #AFA050",
"b. c #BFA85F",
"n. c #A99A6D",
"m. c #B8A365",
"M. c #C28243",
"N. c #CD8945",
"B. c #D58D4B",
"V. c #D08947",
"C. c #CB9D48",
"Z. c #D2934C",
"A. c #D99449",
"S. c #CE9153",
"D. c #DC9651",
"F. c #D89953",
"G. c #CA8D57",
"H. c #E09652",
"J. c #CBA64C",
"K. c #DABB4E",
"L. c #D5B64C",
"P. c #C6AB55",
"I. c #CBB758",
"U. c #D2B251",
"Y. c #D9B654",
"T. c #D4BC55",
"R. c #D8BA59",
"E. c #DEA95B",
"W. c #E3BD43",
"Q. c #E2BF56",
"!. c #CBBA70",
"~. c #F1A467",
"^. c #DDC253",
"/. c #D8CD5D",
"(. c #D3CB5A",
"). c #E1C44B",
"_. c #E9CA4C",
"`. c #E1C453",
"'. c #E5C954",
"]. c #EBCD56",
"[. c #E5C45A",
"{. c #E4CC5A",
"}. c #E9CE5B",
"|. c #E9C55B",
" X c #ECD25D",
".X c #EFD057",
"XX c #F3D355",
"oX c #F3D55B",
"OX c #F5DB5E",
"+X c #F9DC5E",
"@X c #DDC168",
"#X c #E6C865",
"$X c #EDD362",
"%X c #E9D969",
"&X c #F0D762",
"*X c #F5DB62",
"=X c #F9DF63",
"-X c #FADD6D",
";X c #F2CF7B",
":X c #F6D977",
">X c #EFCF6F",
",X c #FDE464",
"<X c #FEEB66",
"1X c #F4EA6A",
"2X c #FEED69",
"3X c #FBE26B",
"4X c #FFF46A",
"5X c #FFF166",
"6X c #FEEC74",
"7X c #FCE37B",
"8X c #FFF27C",
"9X c #EBE26D",
"0X c #E57E90",
"qX c #DCC887",
"wX c #F4D989",
"eX c #FEEC82",
"rX c #FFF187",
"tX c #FFE190",
"yX c None",
/* pixels */
"yXyXyXyXyXyXyXyXyXyXyXyXyXyXyXyXyXyXyXyXyXyXyXyXyXyXyXyXyXyXyXyXyXyXyXyXyXyXyXyX",
"yXyXyXyXyXyXyXyXyXyXyXyXyXyXyXyXyXyXyXyXyXyXyXyXyXyXyXyXyXyXyXyXyXS.Z.Z.S.yXyXyX",
"yXyXyXyXyXyXyXyXyXyXyXyXyXyXyXyXyXyXyXyXyXyXyXyXyXyXyXyXyXyXyXyX' u.a.s.A.Z.yXyX",
"yXyXyXyXyXyXyXyXyXyXyXyXyXyXyXyXyXyXyXyXyXyXyXyXyXyXyXyXyXyXyXyX' u.a.p.A.A.F.yX",
"yXyXyXyXyXyXyXyXyXyXyXyXyXyXyXyXyXyXyXyXyXyXyXyXyXyXyXyXyXyX( <.) ' a.H.~.D.D.yX",
"yXyXyXyXyXyXyXyXyXyXyXyXyXyXyXyXyXyXyXyXyX-X8 >Xn.yXyXyXyXyXP Q ~ i.V.D.A.N.N.yX",
"yXyXyXyXyXyXyXyXyXyXyXyXyXyXyXyX0 d.q ;.R.-XP.I.E y m.yXyXyXP H F ! _ ) Q T Q yX",
"yXyXyXyXyXyXyXyXyXyXyXyXyXyXyXyX;.I.,X{.v.*X2X2Xl.O ; P.yXyXyXyX2.F F J H 6 ^ yX",
"yXyXyXyXyXyXyXyXyXyXyXyXyXyXyXyXR T.(.; ; f.1X4X2X;.% % b.yXyXyXyXL J L 6 H ,.yX",
"yXyXyXyXyXyXyXyXyXyXyXyXyXyXyX*Xl.{.{.= O O e 1X4X2X9 9 %X3XyXyXyXyXD D L ^ yXyX",
"yXyXyXyXyXyXyXyXyXyXyXyXyXyX&X*X,X,X5Xq O O O d.4X4X(.9 8 f.6XyXyXI.P.C.,.yXyXyX",
"yXyXyXyXyXyXyXyXyXyXyXyXyXyX*X,X,X<X4X/.; 8 d.; (.4X1X%X9Xh.6XyX;X#XR.yXyXyXyXyX",
"yXyXyXyXyXyXyXyXyXyXyXyXyX&X*X,X,X<X5X5X4X1Xw O ;.<X,X2XeXeX8XeXwX!.yXyXyXyXyXyX",
"yXyXyXyXyXyXyXyXyXyXyXyXyX&X*X,X<X<X4X4X4Xj.O O w <XoXoX$X:X8XrX>.yXyXyXyXyXyXyX",
"yXyXyXyXyXyXyXyXyXyXyXyX$X$X,X,X3X2X2X4X4X1Xf.d.9X5X.X[.(.8XeXb.= yXyXyXyXyXyXyX",
"yXyXyXyXyXyXyXyXyXyXyXyX$X X&X,X,X2X2X4X4X4X4X4X5X5XoX}.1X1Xj.% & y yXyXyXyXyXyX",
"yXyXyXyXyXyXyXyXyXyXyXyX}. X*X*X3X<X2X5X4X4X4X4X4X4X5X+Xl.$ o + & >.yXyXyXyXyXyX",
"yXyXyXyXyXyXyXyX*X*XyX}. X XOX,X,X<X2X2X5X5X5X5X/.l.7 @ @ @ o O & n.yXyXyXyXyXyX",
"yXyXyXyXyXyX*X*X=X=X,X=X{.}. X*X,X,Xg.q e 7 $ .       1 k [ 1 O = qXyXyXyXyXyXyX",
"yXyXyXyXi.C.&X{.T.T.R./.^.{. XoX+X+Xc.O o X X . : 4 4 m } | z % r yXyXyXyXyXyXyX",
"yXyXyX_ ) p.t.k.k.yXyXP.U.^.}. XOXOX+Xw O + + * l [ } } | 0.5 & !.yXyXyXyXyXyXyX",
"yXyXM.' ~ ! ~ G yXyXyXyXY.^.'.}.oXoX+X+XE % % * l } } | 9.-.* h.tXyXyXyXyXyXyXyX",
"yXG.' p.B.] G D yXyXyXyX#X`.^.'.}. XoXOX+Xc.3 @ * k V { 5 2 x.:XyXyXyXyXyXyXyXyX",
"yX<.M.B.p.p.' ! yXyXyXyXyX|.`.`.'.].]..XXXoXXXl.q 9 7 0 W Q.>XtXyXyXyXyXyXyXyXyX",
"yX_ M.N.i.' ' ~ yXyXyXyXyXyX|.).)._.].].]..X.XXXXX_.W.W.W.|.;XyXyXyXyXyXyXyXyXyX",
"yX,._ y.) ) ) ' ) yXyXyXyXyXyX|.)._.)._._.'.'.'.XXoXoX`.Q.;XyXyXyXyXyXyXyXyXyXyX",
"yX<./ / / Q T Q yXyXyXyXyXyXyXyX[.^.).).W.K.K.{.>X-X7X7X;XyXyXyXyXyXyXyXyXyXyXyX",
"yXG.^ / / H 6 6 yXyXyXyXyXyXk k ..<.C.R.K.Y.U.U.U.Y.#XE.w.A e.yXyXyXyXyXyXyXyXyX",
"yXyX,.yXyXT T L yXyXyXyXyXU a u N p > z.Y.Y.Y.yXyX` Y C C n  .7.S A 6.6.0.0XyXyX",
"yXyXyXyXyXyXyXyXyXyXyXyXyX$.b M q.c < J.L.U.yXyX#.M U Z M v n Z S A 6.6.6.0.yXyX",
"yXyXyXyXyXyXyXyXyXyXyXyXyXM h %.*.M u y.J.yXyXyXyXB Z M v f n C C A w.0.7.-.3.yX",
"yXyXyXyXyXyXyXyXyXyXyXyXyXb h x b a a a h } yXyXyX*.b V f m Z $.7.8.%.#.O.@.3.yX",
"yXyXyXyXyXyXyXyXyXyXyXyX&.m m a p p p c #.yXyXyXyXyXB V K I M U 7.&.K X.@.:.yXyX",
"yXyXyXyXyXyXyXyXyXyXyXyXU M x a u k yXyXyXyXyXyXyXyX=.#.*.m m Z U K @.:.4.yXyXyX",
"yXyXyXyXyXyXyXyXyXyXyXq.U B b a d #.yXyXyXyXyXyXyXyXr.*.1.K x x K :.4.yXyXyXyXyX",
"yXyXyXyXyXyXyXyXyXyXyX%.&.M d d m =.yXyXyXyXyXyXyXyXyX1.1.I c X.X.@.yXyXyXyXyXyX",
"yXyXyXyXyXyXyXyXyXyXq.U V h j j x 1.yXyXyXyXyXyXyXyXyX1.=.K 5 5 yXyXyXyXyXyXyXyX",
"yXyXyXyXyXyXyXyXyXyXU m j s s j N yXyXyXyXyXyXyXyXyXyXyXK 5 o.yXyXyXyXyXyXyXyXyX",
"yXyXyXyXyXyXyXyXyXyXyXz g i i z yXyXyXyXyXyXyXyXyXyXyXyXyXyXyXyXyXyXyXyXyXyXyXyX",
"yXyXyXyXyXyXyXyXyXyXyXyXyXyXyXyXyXyXyXyXyXyXyXyXyXyXyXyXyXyXyXyXyXyXyXyXyXyXyXyX"
};
