/* XPM */
static char *result[] = {
/* columns rows colors chars-per-pixel */
"40 40 84 1 ",
"  c #1D130E",
". c #141D0E",
"X c #1C1A0E",
"o c #0F0E17",
"O c #0C0E19",
"+ c #130F15",
"@ c #0E1315",
"# c #0A1A13",
"$ c #0C1018",
"% c #171013",
"& c #1C1112",
"* c #1C1D12",
"= c #11121A",
"- c #21120E",
"; c #211513",
": c #2C1C14",
"> c #2C1E19",
", c #0C240D",
"< c #092B0D",
"1 c #12260E",
"2 c #192F0C",
"3 c #0B320F",
"4 c #1C340D",
"5 c #0A2110",
"6 c #0B2C11",
"7 c #112311",
"8 c #1D2412",
"9 c #142E11",
"0 c #1B2B12",
"q c #0E3511",
"w c #0D3A12",
"e c #103711",
"r c #113D13",
"t c #1C3B16",
"y c #262615",
"u c #292616",
"i c #232914",
"p c #2E221D",
"a c #332117",
"s c #33231B",
"d c #39271C",
"f c #3F2D1E",
"g c #2C3319",
"h c #36331C",
"j c #38311D",
"k c #3B2921",
"l c #412C1E",
"z c #41321F",
"x c #442F23",
"c c #453122",
"v c #4B3423",
"b c #503625",
"n c #124416",
"m c #194617",
"M c #144A19",
"N c #1C4C19",
"B c #1C541C",
"V c #1E591F",
"C c #22551D",
"Z c #245A1F",
"A c #235E20",
"S c #256323",
"D c #2C6523",
"F c #2B6C26",
"G c #316B26",
"H c #306F28",
"J c #2E7128",
"K c #32752A",
"L c #39772B",
"P c #357C2D",
"I c #3C7D2D",
"U c #3B812F",
"Y c #3D8630",
"T c #3F8831",
"R c #40832F",
"E c #418631",
"W c #448E33",
"Q c #488E34",
"! c #479035",
"~ c #4A9436",
"^ c #4D9938",
"/ c #519D3A",
"( c #53A03B",
") c #091E28",
/* pixels */
"))))))))))))))))))))))))4492))))))))))))",
"))))))))))<<<<<))))))))NIIIZ))))))))))))",
")))))))))eAGDDDe)))<<)GL(((RZ<<<))))))))",
")))))))))4^(((^Cn)enneR(((((I<nnr)))))))",
")))))))))e~(((((C9mIUnD/((//LrKUC3))))))",
"))))))<<<e~(((((~DN//NG(((/GmL~/WA<)))))",
")))))<BKIUU^(((((QE((KU((((~R~((/K<)))))",
")))<<<H~(/!^(((((((((~~(((((((((~H<)))))",
"))mNN<I((((((((((((((((((((((((^IB<)))))",
")<D(~mR((((((((((((((((((((((((EZee)))))",
")<D((~/((((((((((((((((((((((((/^~Wq))))",
")<D/E/(((((((((((((((((((((((((((//RN)))",
"))CH!/((((((((((((((((((((((((((((((LC))",
"))<N(((((((((((((((((((((((((((^^((((D<)",
"))3C((//(((((((((((((((((((((((TW/(((D<)",
")<BI((E!(((((((((((((((((((((((/WT(((D<)",
")3S/((TTT(((((((((((((((/T^/((((PVSUUZ<)",
"<MU((TTT~(((((((((((((((^!IU~/(~UKHCBm))",
"<STTTJ~(((((((((((((((((((KSJY~UW(^V3)))",
"<AJSMBT(((/((((((((((((((((PMBKP!((/B<))",
"<3rMMT(((/Y~(((((((((((((((^WKP!/(/UBq<)",
")<3eM~((((U~((((W~((((((/T^(/~PYYYYPJM<)",
")<rAF^((^TT/((((~W!((((((!W~(^PPFASKPB<)",
")rSYT~~^TU/(^~(((WY(((((((TT~~TYFBMDFM<)",
"6AE(/YPPUUT(TT~^^TY((((((^YPPU^/TJMMM3<)",
"<nK((/^WJUYT(^UUUUY(((((/UPPPP^(/!KMMw<)",
")3AW(((^TYT(((TYPY!Y/(~UYPAJ~~T^(~Jw3,X)",
")XtDEK^(^Y(((((YT~^!!^~USASU(/!^^YKw<,:)",
")X9BPVKWTY^((/!F!((/T^(WVnFT!Y/^TKFM3ia-",
"-.BPPPBAJUT(/!JMU/(((^((!qAJFB~UKSnM38:-",
"-,BPPPnBUJBJUFMMF!(/U^(^K33wVKUVMMnn30>-",
"-1BPKVqnBVSJUFnnFUYYPFJUKn3wBPKMwnMn37&+",
"-*tCAM3qwMKPPJAMVFPPPBBVVM33nASr6wqw6#O)",
" :86ww9<3MSSJPJMnBSFFMnnMn66ewr6,,,,#OO)",
"=)O#,<uiqnn3BJJMnq3nnnnnr<isu<9X&oOOOO))",
"))O$@ lvh<<<wMMMq0i<<3<<< alvvvd;%OOOO))",
")))O= xvvjuu9q33gzcju*.##%;axvbva OOO)))",
"))))o%>xvls:*55.lvvl:;+OOO%;pkkk>&))))))",
")))))))kf>>;%OO&dxk>-+OOOOOOOOOO))))))))",
")))))))========$================))))))))"
};
